<mxfile host="app.diagrams.net" modified="2024-03-04T01:43:07.937Z" agent="Mozilla/5.0 (Windows NT 10.0; Win64; x64) AppleWebKit/537.36 (KHTML, like Gecko) Chrome/121.0.0.0 Safari/537.36 OPR/107.0.0.0" etag="aAlbyxpgIPPpQOcw7har" version="24.0.1" type="device">
  <diagram name="Page-1" id="P1jXP1ndj7kY2r62UXAk">
    <mxGraphModel dx="2031" dy="1166" grid="1" gridSize="10" guides="1" tooltips="1" connect="1" arrows="1" fold="1" page="1" pageScale="1" pageWidth="1654" pageHeight="1169" math="0" shadow="0">
      <root>
        <mxCell id="0" />
        <mxCell id="1" parent="0" />
        <mxCell id="U5_G8Vs_-OL42LiF_mDP-3" value="" style="edgeStyle=orthogonalEdgeStyle;rounded=0;orthogonalLoop=1;jettySize=auto;html=1;" edge="1" parent="1" source="U5_G8Vs_-OL42LiF_mDP-1" target="U5_G8Vs_-OL42LiF_mDP-2">
          <mxGeometry relative="1" as="geometry" />
        </mxCell>
        <mxCell id="U5_G8Vs_-OL42LiF_mDP-1" value="Raw Data" style="rounded=0;whiteSpace=wrap;html=1;" vertex="1" parent="1">
          <mxGeometry x="120" y="550" width="120" height="60" as="geometry" />
        </mxCell>
        <mxCell id="U5_G8Vs_-OL42LiF_mDP-5" value="" style="edgeStyle=orthogonalEdgeStyle;rounded=0;orthogonalLoop=1;jettySize=auto;html=1;" edge="1" parent="1" source="U5_G8Vs_-OL42LiF_mDP-2" target="U5_G8Vs_-OL42LiF_mDP-4">
          <mxGeometry relative="1" as="geometry">
            <Array as="points">
              <mxPoint x="380" y="700" />
            </Array>
          </mxGeometry>
        </mxCell>
        <mxCell id="U5_G8Vs_-OL42LiF_mDP-11" value="" style="edgeStyle=orthogonalEdgeStyle;rounded=0;orthogonalLoop=1;jettySize=auto;html=1;" edge="1" parent="1" source="U5_G8Vs_-OL42LiF_mDP-2" target="U5_G8Vs_-OL42LiF_mDP-10">
          <mxGeometry relative="1" as="geometry" />
        </mxCell>
        <mxCell id="U5_G8Vs_-OL42LiF_mDP-2" value="Initial Thresholding" style="rounded=0;whiteSpace=wrap;html=1;" vertex="1" parent="1">
          <mxGeometry x="320" y="550" width="120" height="60" as="geometry" />
        </mxCell>
        <mxCell id="U5_G8Vs_-OL42LiF_mDP-7" value="" style="edgeStyle=orthogonalEdgeStyle;rounded=0;orthogonalLoop=1;jettySize=auto;html=1;" edge="1" parent="1" source="U5_G8Vs_-OL42LiF_mDP-4" target="U5_G8Vs_-OL42LiF_mDP-6">
          <mxGeometry relative="1" as="geometry" />
        </mxCell>
        <mxCell id="U5_G8Vs_-OL42LiF_mDP-4" value="Secondary Thresholding (Data Smoothing)" style="rounded=0;whiteSpace=wrap;html=1;" vertex="1" parent="1">
          <mxGeometry x="520" y="670" width="120" height="60" as="geometry" />
        </mxCell>
        <mxCell id="U5_G8Vs_-OL42LiF_mDP-6" value="Overlay sections of interest" style="rounded=0;whiteSpace=wrap;html=1;" vertex="1" parent="1">
          <mxGeometry x="720" y="670" width="120" height="60" as="geometry" />
        </mxCell>
        <mxCell id="U5_G8Vs_-OL42LiF_mDP-13" style="edgeStyle=orthogonalEdgeStyle;rounded=0;orthogonalLoop=1;jettySize=auto;html=1;entryX=0.5;entryY=0;entryDx=0;entryDy=0;" edge="1" parent="1" source="U5_G8Vs_-OL42LiF_mDP-8" target="U5_G8Vs_-OL42LiF_mDP-6">
          <mxGeometry relative="1" as="geometry" />
        </mxCell>
        <mxCell id="U5_G8Vs_-OL42LiF_mDP-15" value="" style="edgeStyle=orthogonalEdgeStyle;rounded=0;orthogonalLoop=1;jettySize=auto;html=1;" edge="1" parent="1" source="U5_G8Vs_-OL42LiF_mDP-8" target="U5_G8Vs_-OL42LiF_mDP-14">
          <mxGeometry relative="1" as="geometry" />
        </mxCell>
        <mxCell id="U5_G8Vs_-OL42LiF_mDP-8" value="Identify sections of interest" style="rounded=0;whiteSpace=wrap;html=1;" vertex="1" parent="1">
          <mxGeometry x="720" y="550" width="120" height="60" as="geometry" />
        </mxCell>
        <mxCell id="U5_G8Vs_-OL42LiF_mDP-12" style="edgeStyle=orthogonalEdgeStyle;rounded=0;orthogonalLoop=1;jettySize=auto;html=1;entryX=0;entryY=0.5;entryDx=0;entryDy=0;" edge="1" parent="1" source="U5_G8Vs_-OL42LiF_mDP-10" target="U5_G8Vs_-OL42LiF_mDP-8">
          <mxGeometry relative="1" as="geometry" />
        </mxCell>
        <mxCell id="U5_G8Vs_-OL42LiF_mDP-10" value="Prophet Prediction" style="rounded=0;whiteSpace=wrap;html=1;" vertex="1" parent="1">
          <mxGeometry x="520" y="550" width="120" height="60" as="geometry" />
        </mxCell>
        <mxCell id="U5_G8Vs_-OL42LiF_mDP-14" value="Forecasting prediction" style="rounded=0;whiteSpace=wrap;html=1;" vertex="1" parent="1">
          <mxGeometry x="920" y="550" width="120" height="60" as="geometry" />
        </mxCell>
      </root>
    </mxGraphModel>
  </diagram>
</mxfile>
